# xmcd CD database file
# Copyright (C) 1995-1998 Ti Kan
#
# Track frame offsets:
#	150
#	16505
#	31669
#	46742
#	67511
#	83199
#	96252
#	109130
#	117818
#	126818
#	137785
#	155449
#	164325
#	178687
#	199470
#	212472
#	229677
#
# Disc length: 3426 seconds
#
# Revision: 1
# Processed by: cddbd v1.4PL0 Copyright (c) Steve Scherf et al.
# Submitted via: CDex 1.30Release
#
DISCID=d10d6011
DTITLE=EstakaZero - CD Promocional
DYEAR=2002
DGENRE=Country
TTITLE0=Voltanto à estakazero
TTITLE1=Janaina
TTITLE2=Eu nem dormi direito
TTITLE3=Foi devagarinho
TTITLE4=Encosta Neu
TTITLE5=Se um dia
TTITLE6=Mandacaru
TTITLE7=Vendinha
TTITLE8=Óia eu aqui
TTITLE9=Lá no sertão
TTITLE10=Ela é tentação
TTITLE11=Onde que tu tá
TTITLE12=Ainda me lembro
TTITLE13=Eu quero ver
TTITLE14=Medo de chuva
TTITLE15=Olhar de Querubina
TTITLE16=Na imenda
EXTD=YEAR: 2002 ID3G:   2
EXTT0=
EXTT1=
EXTT2=
EXTT3=
EXTT4=
EXTT5=
EXTT6=
EXTT7=
EXTT8=
EXTT9=
EXTT10=
EXTT11=
EXTT12=
EXTT13=
EXTT14=
EXTT15=
EXTT16=
PLAYORDER=
